<svg class="icon" width="200" height="200" viewBox="0 0 1024 1024" xmlns="http://www.w3.org/2000/svg"><path fill="#333" d="M783.838 238.933c4.096 0 7.44 3.345 7.44 7.441v427.008l84.652-84.548a7.441 7.441 0 0110.513 0l42.12 42.12a7.441 7.441 0 010 10.514C834.8 747.554 786.57 800.598 783.838 800.598H724.24a7.441 7.441 0 01-7.441-7.476V246.374c0-4.096 3.345-7.44 7.441-7.44h59.597zM607.573 716.8c3.755 0 6.827 3.072 6.827 6.827v54.613a6.827 6.827 0 01-6.827 6.827H75.093a6.827 6.827 0 01-6.826-6.827v-54.613c0-3.755 3.072-6.827 6.826-6.827h532.48zm0-204.8c3.755 0 6.827 3.072 6.827 6.827v54.613a6.827 6.827 0 01-6.827 6.827H75.093a6.827 6.827 0 01-6.826-6.827v-54.613c0-3.755 3.072-6.827 6.826-6.827h532.48zm-204.8-204.8c3.755 0 6.827 3.072 6.827 6.827v54.613a6.827 6.827 0 01-6.827 6.827H75.093a6.827 6.827 0 01-6.826-6.827v-54.613c0-3.755 3.072-6.827 6.826-6.827h327.68z"/></svg>