<svg class="icon" width="200" height="200" viewBox="0 0 1024 1024" xmlns="http://www.w3.org/2000/svg"><path fill="#333" d="M486.4 972.8a25.6 25.6 0 01-12.442-3.226c-4.812-2.662-119.09-66.61-235.11-171.366-68.66-61.952-123.443-125.338-162.97-188.416C25.498 529.357 0 449.075 0 371.2a269.107 269.107 0 01268.8-268.8c50.176 0 103.475 18.79 150.067 52.94 27.239 19.969 50.432 44.033 67.533 69.582a282.726 282.726 0 0167.533-69.581C600.525 121.19 653.824 102.4 704 102.4a269.107 269.107 0 01268.8 268.8c0 77.875-25.549 158.157-75.878 238.592-39.476 63.078-94.31 126.464-162.919 188.416-116.019 104.755-230.297 168.704-235.11 171.366a25.6 25.6 0 01-12.442 3.226zM268.8 153.6A217.856 217.856 0 0051.2 371.2c0 155.648 120.32 297.062 221.235 388.352A1420.186 1420.186 0 00486.4 917.606a1420.186 1420.186 0 00213.965-158.054C801.28 668.314 921.6 526.848 921.6 371.2A217.856 217.856 0 00704 153.6c-87.194 0-171.878 71.731-193.331 136.09a25.6 25.6 0 01-48.538 0C440.678 225.33 355.994 153.6 268.8 153.6z"/></svg>