<svg class="icon" viewBox="0 0 1024 1024" xmlns="http://www.w3.org/2000/svg" width="200" height="200"><path d="M512 0a512 512 0 110 1024A512 512 0 01512 0zm-.585 683.081a58.807 58.807 0 00-43.447 16.896 54.418 54.418 0 00-18.505 43.447c0 17.7 5.632 32.183 18.505 43.447a59.392 59.392 0 0043.447 17.7c17.7 0 32.183-5.632 45.056-16.896a61.294 61.294 0 0017.7-44.251 59.392 59.392 0 00-17.7-43.447 63.927 63.927 0 00-45.056-16.896zm14.482-464.238c-59.538 0-106.203 16.896-140.8 50.688-35.401 33.792-52.297 80.458-52.297 139.996h91.721c0-34.597 6.437-61.148 20.114-79.653 16.092-21.723 41.034-32.183 75.63-32.183 27.356 0 49.079 7.242 64.366 22.528 14.482 15.287 22.528 36.206 22.528 62.757 0 20.114-7.241 39.424-21.724 57.125l-9.654 11.264c-52.298 46.665-83.676 80.457-94.135 102.18-11.264 21.724-16.092 48.274-16.092 78.848v11.264h92.526v-11.264a117.029 117.029 0 0112.069-53.102c7.24-14.482 17.7-28.16 32.182-39.424l38.986-34.67c15.725-14.335 25.892-24.063 30.208-28.89 19.31-25.747 29.769-58.734 29.769-98.963 0-49.079-16.092-87.698-48.275-115.858-32.182-28.965-74.825-42.643-127.122-42.643z" fill="#CCC"/></svg>