<svg width="25" height="27" viewBox="0 0 25 27" xmlns="http://www.w3.org/2000/svg"><path d="M17.24 20c1.633 0 3.224.515 4.547 1.473a8.886 8.886 0 012.963 3.713l.17.397a1 1 0 01-1.84.785l-.17-.398a6.886 6.886 0 00-2.296-2.877A5.753 5.753 0 0017.241 22H7.694a5.691 5.691 0 00-3.309 1.06 6.594 6.594 0 00-2.24 2.8l-.224.529A1 1 0 11.08 25.61l.223-.529a8.594 8.594 0 012.92-3.648A7.691 7.691 0 017.694 20zM13 0a8 8 0 018 8v3a8 8 0 11-16 0V8a8 8 0 018-8zm0 2a6 6 0 00-6 6v3a6 6 0 1012 0V8a6 6 0 00-6-6zm-3.536 9.293a1 1 0 011.414 0l.129.12a3 3 0 004.114-.12l.087-.078a1 1 0 011.327 1.492 5 5 0 01-7.07 0 1 1 0 010-1.414z" fill="#666" fill-rule="nonzero"/></svg>