<svg :width='size' :height='size' class="icon" width="200px" height="192.12px" viewBox="0 0 1066 1024" version="1.1" xmlns="http://www.w3.org/2000/svg"><path :fill='fill' fill="#333333" d="M923.178667 238.464l-368.469334-161.706667L186.368 237.653333l-0.213333 212.650667c0 139.690667 50.261333 260.266667 148.224 354.816 60.117333 58.026667 129.493333 98.645333 196.821333 125.141333l23.466667 9.258667 23.466666-9.216c67.285333-26.538667 136.746667-67.157333 196.821334-125.098667 98.005333-94.549333 148.224-215.125333 148.224-354.858666V238.464zM554.666667 146.602667l304.512 133.632v170.112c0 122.496-43.306667 226.432-128.64 308.778666-51.157333 49.322667-107.904 81.194667-147.882667 99.626667l-15.061333 6.698667-12.928 5.290666-12.928-5.290666-15.061334-6.698667c-39.978667-18.432-96.682667-50.346667-147.84-99.669333-81.834667-78.976-125.013333-177.664-128.426666-293.546667l-0.256-15.189333 0.170666-170.794667L554.666667 146.602667zM504.064 693.077333a29.824 29.824 0 0 1-26.752-16.981333 31.061333 31.061333 0 0 1 2.986667-32l78.421333-105.301333-74.666667-39.68a30.421333 30.421333 0 0 1-15.189333-19.626667 31.061333 31.061333 0 0 1 4.266667-24.576l93.226666-140.544c5.973333-9.045333 16.213333-14.08 26.88-13.312a29.866667 29.866667 0 0 1 24.746667 17.066667c4.650667 9.813333 3.84 21.461333-2.133333 30.464l-74.453334 112.213333 76.373334 40.533333a30.421333 30.421333 0 0 1 15.36 20.48 31.018667 31.018667 0 0 1-5.376 25.130667l-99.882667 134.101333a29.610667 29.610667 0 0 1-23.808 12.032z" /></svg>