<svg :width='size' :height='size' class="icon" width="200px" height="200.00px" viewBox="0 0 1024 1024" version="1.1" xmlns="http://www.w3.org/2000/svg"><path :fill='fill' fill="#333333" d="M501.43232 164.00384a358.4 358.4 0 1 0 21.13536 0L512 163.84l-10.56768 0.16384z m22.1184-61.44c226.5088 6.144 408.28928 191.6928 408.28928 419.67616 0 231.87456-187.96544 419.84-419.84 419.84S92.16 754.11456 92.16 522.24C92.16 294.21568 273.89952 108.66688 500.44928 102.56384L512 102.4l11.55072 0.16384zM114.97472 505.73312m36.53632 0l49.80736 0q36.53632 0 36.53632 36.53632l0 0q0 36.53632-36.53632 36.53632l-49.80736 0q-36.53632 0-36.53632-36.53632l0 0q0-36.53632 36.53632-36.53632ZM781.80352 505.73312m36.53632 0l63.40608 0q36.53632 0 36.53632 36.53632l0 0q0 36.53632-36.53632 36.53632l-63.40608 0q-36.53632 0-36.53632-36.53632l0 0q0-36.53632 36.53632-36.53632ZM475.46368 118.90688m36.53632 0l0 0q36.53632 0 36.53632 36.53632l0 49.80736q0 36.53632-36.53632 36.53632l0 0q-36.53632 0-36.53632-36.53632l0-49.80736q0-36.53632 36.53632-36.53632ZM475.46368 802.69312m36.53632 0l0 0q36.53632 0 36.53632 36.53632l0 49.80736q0 36.53632-36.53632 36.53632l0 0q-36.53632 0-36.53632-36.53632l0-49.80736q0-36.53632 36.53632-36.53632ZM512 522.24m-81.92 0a81.92 81.92 0 1 0 163.84 0 81.92 81.92 0 1 0-163.84 0Z" /></svg>