<?xml version="1.0" encoding="utf-8"?><svg xmlns="http://www.w3.org/2000/svg" xmlns:xlink="http://www.w3.org/1999/xlink"><symbol class="aicon" viewBox="0 0 1024 1024" id="circleClose" xmlns="http://www.w3.org/2000/svg"><path fill="#333" d="M717.154 698.893c-9.841 9.665-25.656 9.522-35.319-.318l-157.178-160.05-157.178 160.05c-9.666 9.84-25.478 9.983-35.319.318-9.842-9.664-9.985-25.479-.322-35.319L489.65 502.879 331.838 342.184c-9.663-9.841-9.52-25.658.322-35.319 9.841-9.666 25.653-9.523 35.319.317l157.178 160.05 157.178-160.05c9.663-9.84 25.478-9.983 35.319-.317 9.841 9.661 9.985 25.478.321 35.319L559.663 502.879l157.812 160.695c9.664 9.84 9.52 25.655-.321 35.319zm229.713 83.48c-7.294 11.706-22.697 15.284-34.405 7.991-11.706-7.292-15.285-22.696-7.992-34.404 45.244-72.624 69.579-156.469 69.579-243.961C974.049 256.82 767.182 49.952 512 49.952S49.952 256.82 49.952 511.999c0 255.181 206.866 462.048 462.048 462.048 106.002 0 206.471-35.768 287.646-100.434 10.789-8.592 26.503-6.814 35.096 3.975 8.593 10.792 6.816 26.507-3.973 35.099C740.825 984.33 629.411 1023.999 512 1023.999c-282.771 0-512-229.228-512-512S229.229-.002 512-.002c282.769 0 512 229.229 512 512.001 0 96.897-26.987 189.882-77.133 270.374z"/></symbol><symbol viewBox="0 0 14 14" id="close" xmlns="http://www.w3.org/2000/svg"><path d="M12.805.205a.7.7 0 01.99.99L7.99 7l5.805 5.805a.7.7 0 11-.99.99L7 7.989l-5.805 5.806a.7.7 0 01-.903.074l-.087-.074a.7.7 0 010-.99L6.01 7 .205 1.195a.7.7 0 11.99-.99L7 6.011z" fill="#666"/></symbol><symbol class="cicon" viewBox="0 0 1024 1024" id="downArrow" xmlns="http://www.w3.org/2000/svg"><path fill="#333" d="M894.974 322.308a24.8 24.8 0 1035.072-35.073 24.8 24.8 0 10-35.072 35.073z"/><path fill="#333" d="M114.9 291.4l-35.3 35.3 422.5 422.5 427.6-427.7-30.6-30.6h-7.8L502.9 679.4z"/><path fill="#333" d="M79.548 326.566a24.8 24.8 0 1035.072-35.074 24.8 24.8 0 10-35.072 35.074z"/></symbol><symbol class="dicon" viewBox="0 0 1024 1024" id="filter" xmlns="http://www.w3.org/2000/svg"><path fill="#333" d="M783.838 238.933c4.096 0 7.44 3.345 7.44 7.441v427.008l84.652-84.548a7.441 7.441 0 0110.513 0l42.12 42.12a7.441 7.441 0 010 10.514C834.8 747.554 786.57 800.598 783.838 800.598H724.24a7.441 7.441 0 01-7.441-7.476V246.374c0-4.096 3.345-7.44 7.441-7.44h59.597zM607.573 716.8c3.755 0 6.827 3.072 6.827 6.827v54.613a6.827 6.827 0 01-6.827 6.827H75.093a6.827 6.827 0 01-6.826-6.827v-54.613c0-3.755 3.072-6.827 6.826-6.827h532.48zm0-204.8c3.755 0 6.827 3.072 6.827 6.827v54.613a6.827 6.827 0 01-6.827 6.827H75.093a6.827 6.827 0 01-6.826-6.827v-54.613c0-3.755 3.072-6.827 6.826-6.827h532.48zm-204.8-204.8c3.755 0 6.827 3.072 6.827 6.827v54.613a6.827 6.827 0 01-6.827 6.827H75.093a6.827 6.827 0 01-6.826-6.827v-54.613c0-3.755 3.072-6.827 6.826-6.827h327.68z"/></symbol><symbol viewBox="0 0 23 22" id="gotoTop" xmlns="http://www.w3.org/2000/svg"><path d="M11.966 4.164l.095.083 9.192 9.192a1 1 0 01-1.32 1.498l-.094-.083-7.34-7.34L12.5 21a1 1 0 01-.883.993L11.5 22a1 1 0 01-.993-.883L10.5 21V7.222l-8.34 8.339a1 1 0 01-1.32.083l-.094-.083a1 1 0 01-.083-1.32l.083-.095 9.9-9.899a1 1 0 011.32-.083zM22 0a1 1 0 010 2H1a1 1 0 010-2h21z" fill="#666"/></symbol><symbol class="ficon" viewBox="0 0 1024 1024" id="heart" xmlns="http://www.w3.org/2000/svg"><path fill="#333" d="M486.4 972.8a25.6 25.6 0 01-12.442-3.226c-4.812-2.662-119.09-66.61-235.11-171.366-68.66-61.952-123.443-125.338-162.97-188.416C25.498 529.357 0 449.075 0 371.2a269.107 269.107 0 01268.8-268.8c50.176 0 103.475 18.79 150.067 52.94 27.239 19.969 50.432 44.033 67.533 69.582a282.726 282.726 0 0167.533-69.581C600.525 121.19 653.824 102.4 704 102.4a269.107 269.107 0 01268.8 268.8c0 77.875-25.549 158.157-75.878 238.592-39.476 63.078-94.31 126.464-162.919 188.416-116.019 104.755-230.297 168.704-235.11 171.366a25.6 25.6 0 01-12.442 3.226zM268.8 153.6A217.856 217.856 0 0051.2 371.2c0 155.648 120.32 297.062 221.235 388.352A1420.186 1420.186 0 00486.4 917.606a1420.186 1420.186 0 00213.965-158.054C801.28 668.314 921.6 526.848 921.6 371.2A217.856 217.856 0 00704 153.6c-87.194 0-171.878 71.731-193.331 136.09a25.6 25.6 0 01-48.538 0C440.678 225.33 355.994 153.6 268.8 153.6z"/></symbol><symbol class="gicon" viewBox="0 0 1025 1024" id="iconPhone" xmlns="http://www.w3.org/2000/svg"><path fill="#333" d="M433.326 590.63C331.953 489.321 235.06 371.954 281.521 325.557c66.365-66.429 124.22-107.322 6.595-253.748-117.629-146.422-196.09-33.98-260.472 30.4-74.175 74.238-3.903 350.958 269.621 624.537 273.53 273.458 550.316 343.852 624.55 269.557 64.383-64.32 176.76-142.714 30.404-260.4-146.362-117.693-187.321-59.837-253.754 6.588-46.461 46.27-163.77-50.556-265.139-151.863z"/></symbol><symbol viewBox="0 0 11 20" id="leftArrow" xmlns="http://www.w3.org/2000/svg"><path d="M10.707 1.707A1 1 0 009.293.293l-9 9a1 1 0 000 1.414l9 9a1 1 0 001.414-1.414L2.414 10l8.293-8.293z" fill="#666"/></symbol><symbol viewBox="0 0 14 15" id="menu" xmlns="http://www.w3.org/2000/svg"><path d="M1 2.5h12a1 1 0 000-2H1a1 1 0 100 2zm0 6h12a1 1 0 000-2H1a1 1 0 100 2zm0 6h12a1 1 0 000-2H1a1 1 0 000 2z" fill="#666"/></symbol><symbol class="jicon" viewBox="0 0 1025 1024" id="phone" xmlns="http://www.w3.org/2000/svg"><path fill="#333" d="M433.326 590.63C331.953 489.321 235.06 371.954 281.521 325.557c66.365-66.429 124.22-107.322 6.595-253.748-117.629-146.422-196.09-33.98-260.472 30.4-74.175 74.238-3.903 350.958 269.621 624.537 273.53 273.458 550.316 343.852 624.55 269.557 64.383-64.32 176.76-142.714 30.404-260.4-146.362-117.693-187.321-59.837-253.754 6.588-46.461 46.27-163.77-50.556-265.139-151.863z"/></symbol><symbol class="kicon" viewBox="0 0 1024 1024" id="question" xmlns="http://www.w3.org/2000/svg"><path d="M512 0a512 512 0 110 1024A512 512 0 01512 0zm-.585 683.081a58.807 58.807 0 00-43.447 16.896 54.418 54.418 0 00-18.505 43.447c0 17.7 5.632 32.183 18.505 43.447a59.392 59.392 0 0043.447 17.7c17.7 0 32.183-5.632 45.056-16.896a61.294 61.294 0 0017.7-44.251 59.392 59.392 0 00-17.7-43.447 63.927 63.927 0 00-45.056-16.896zm14.482-464.238c-59.538 0-106.203 16.896-140.8 50.688-35.401 33.792-52.297 80.458-52.297 139.996h91.721c0-34.597 6.437-61.148 20.114-79.653 16.092-21.723 41.034-32.183 75.63-32.183 27.356 0 49.079 7.242 64.366 22.528 14.482 15.287 22.528 36.206 22.528 62.757 0 20.114-7.241 39.424-21.724 57.125l-9.654 11.264c-52.298 46.665-83.676 80.457-94.135 102.18-11.264 21.724-16.092 48.274-16.092 78.848v11.264h92.526v-11.264a117.029 117.029 0 0112.069-53.102c7.24-14.482 17.7-28.16 32.182-39.424l38.986-34.67c15.725-14.335 25.892-24.063 30.208-28.89 19.31-25.747 29.769-58.734 29.769-98.963 0-49.079-16.092-87.698-48.275-115.858-32.182-28.965-74.825-42.643-127.122-42.643z" fill="#CCC"/></symbol><symbol class="licon" viewBox="0 0 1024 1024" id="rightArrow" xmlns="http://www.w3.org/2000/svg"><path fill="#333" d="M711.6 488.624L355.2 152.976a29.36 29.36 0 00-42.352 0 31.408 31.408 0 000 43.552L647.76 512 312.848 827.36a31.408 31.408 0 000 43.552 29.36 29.36 0 0042.352 0l356.4-335.648a36.32 36.32 0 000-46.64z"/></symbol><symbol viewBox="0 0 14 14" id="search" xmlns="http://www.w3.org/2000/svg"><path d="M6.5 0a6.5 6.5 0 014.98 10.677l.05.043 2 2a.75.75 0 01-1.06 1.06l-2-2a.756.756 0 01-.07-.08A6.5 6.5 0 116.5 0zm0 1.5a5 5 0 100 10 5 5 0 000-10z" fill="#999"/></symbol><symbol viewBox="0 0 20 18" id="share" xmlns="http://www.w3.org/2000/svg"><path d="M19 6a1 1 0 011 1v11H0V7a1 1 0 112 0v9h16V7a1 1 0 011-1zM9.293.293a1 1 0 011.414 0l4 4a1 1 0 11-1.414 1.414L11 3.414V10a1 1 0 01-.883.993L10 11a1 1 0 01-1-1V3.414L6.707 5.707a1 1 0 01-1.32.083l-.094-.083a1 1 0 010-1.414z" fill="#666"/></symbol><symbol viewBox="0 0 11 13" id="sort" xmlns="http://www.w3.org/2000/svg"><path d="M7 0h2v8.999L11 9l-4 4V0zM4 13H2V4.001L0 4l4-4v13z" fill="#222" fill-rule="evenodd"/></symbol><symbol viewBox="0 0 23 22" id="top" xmlns="http://www.w3.org/2000/svg"><path d="M11.966 4.164l.095.083 9.192 9.192a1 1 0 01-1.32 1.498l-.094-.083-7.34-7.34L12.5 21a1 1 0 01-.883.993L11.5 22a1 1 0 01-.993-.883L10.5 21V7.222l-8.34 8.339a1 1 0 01-1.32.083l-.094-.083a1 1 0 01-.083-1.32l.083-.095 9.9-9.899a1 1 0 011.32-.083zM22 0a1 1 0 010 2H1a1 1 0 010-2h21z" fill="#666"/></symbol><symbol class="qicon" viewBox="0 0 1024 1024" id="upArrow" xmlns="http://www.w3.org/2000/svg"><path fill="#333" d="M894.971 741.905a24.8 24.8 0 1035.072-35.073 24.8 24.8 0 10-35.072 35.073z"/><path fill="#333" d="M502.9 349.8l388.4 388.5h7.8l30.6-30.6L502.1 280 79.6 702.5l35.3 35.3z"/><path fill="#333" d="M79.572 737.652a24.8 24.8 0 1035.072-35.073 24.8 24.8 0 10-35.072 35.073z"/></symbol><symbol viewBox="0 0 25 27" id="useCenter" xmlns="http://www.w3.org/2000/svg"><path d="M17.24 20c1.633 0 3.224.515 4.547 1.473a8.886 8.886 0 012.963 3.713l.17.397a1 1 0 01-1.84.785l-.17-.398a6.886 6.886 0 00-2.296-2.877A5.753 5.753 0 0017.241 22H7.694a5.691 5.691 0 00-3.309 1.06 6.594 6.594 0 00-2.24 2.8l-.224.529A1 1 0 11.08 25.61l.223-.529a8.594 8.594 0 012.92-3.648A7.691 7.691 0 017.694 20zM13 0a8 8 0 018 8v3a8 8 0 11-16 0V8a8 8 0 018-8zm0 2a6 6 0 00-6 6v3a6 6 0 1012 0V8a6 6 0 00-6-6zm-3.536 9.293a1 1 0 011.414 0l.129.12a3 3 0 004.114-.12l.087-.078a1 1 0 011.327 1.492 5 5 0 01-7.07 0 1 1 0 010-1.414z" fill="#666"/></symbol><symbol viewBox="0 0 25 27" id="userCenter" xmlns="http://www.w3.org/2000/svg"><path d="M17.24 20c1.633 0 3.224.515 4.547 1.473a8.886 8.886 0 012.963 3.713l.17.397a1 1 0 01-1.84.785l-.17-.398a6.886 6.886 0 00-2.296-2.877A5.753 5.753 0 0017.241 22H7.694a5.691 5.691 0 00-3.309 1.06 6.594 6.594 0 00-2.24 2.8l-.224.529A1 1 0 11.08 25.61l.223-.529a8.594 8.594 0 012.92-3.648A7.691 7.691 0 017.694 20zM13 0a8 8 0 018 8v3a8 8 0 11-16 0V8a8 8 0 018-8zm0 2a6 6 0 00-6 6v3a6 6 0 1012 0V8a6 6 0 00-6-6zm-3.536 9.293a1 1 0 011.414 0l.129.12a3 3 0 004.114-.12l.087-.078a1 1 0 011.327 1.492 5 5 0 01-7.07 0 1 1 0 010-1.414z" fill="#666"/></symbol></svg>