<?xml version="1.0" standalone="no"?><!DOCTYPE svg PUBLIC "-//W3C//DTD SVG 1.1//EN" "http://www.w3.org/Graphics/SVG/1.1/DTD/svg11.dtd"><svg xmlns="http://www.w3.org/2000/svg" xmlns:xlink="http://www.w3.org/1999/xlink"><symbol class="aicon" viewBox="0 0 1024 1024" id="category" xmlns="http://www.w3.org/2000/svg"><path fill="#333" d="M865.28 260.608H187.904c-18.432 0-33.28-14.848-33.28-33.28s14.848-33.28 33.28-33.28H865.28c18.432 0 33.28 14.848 33.28 33.28s-14.848 33.28-33.28 33.28zm0 266.752H187.904c-18.432 0-33.28-14.848-33.28-33.28s14.848-33.28 33.28-33.28H865.28c18.432 0 33.28 14.848 33.28 33.28s-14.848 33.28-33.28 33.28zm0 294.4H187.904c-18.432 0-33.28-14.848-33.28-33.28s14.848-33.28 33.28-33.28H865.28c18.432 0 33.28 14.848 33.28 33.28s-14.848 33.28-33.28 33.28z"/></symbol><symbol class="bicon" viewBox="0 0 1024 1024" id="circleClose" xmlns="http://www.w3.org/2000/svg"><path fill="#333" d="M717.154 698.893c-9.841 9.665-25.656 9.522-35.319-.318l-157.178-160.05-157.178 160.05c-9.666 9.84-25.478 9.983-35.319.318-9.842-9.664-9.985-25.479-.322-35.319L489.65 502.879 331.838 342.184c-9.663-9.841-9.52-25.658.322-35.319 9.841-9.666 25.653-9.523 35.319.317l157.178 160.05 157.178-160.05c9.663-9.84 25.478-9.983 35.319-.317 9.841 9.661 9.985 25.478.321 35.319L559.663 502.879l157.812 160.695c9.664 9.84 9.52 25.655-.321 35.319zm229.713 83.48c-7.294 11.706-22.697 15.284-34.405 7.991-11.706-7.292-15.285-22.696-7.992-34.404 45.244-72.624 69.579-156.469 69.579-243.961C974.049 256.82 767.182 49.952 512 49.952S49.952 256.82 49.952 511.999c0 255.181 206.866 462.048 462.048 462.048 106.002 0 206.471-35.768 287.646-100.434 10.789-8.592 26.503-6.814 35.096 3.975 8.593 10.792 6.816 26.507-3.973 35.099C740.825 984.33 629.411 1023.999 512 1023.999c-282.771 0-512-229.228-512-512S229.229-.002 512-.002c282.769 0 512 229.229 512 512.001 0 96.897-26.987 189.882-77.133 270.374z"/></symbol><symbol class="cicon" viewBox="0 0 1024 1024" id="close" xmlns="http://www.w3.org/2000/svg"><path fill="#333" d="M782.426 824.925L197.838 240.198c-11.987-11.99-11.985-31.428.005-43.415 11.99-11.987 31.428-11.985 43.415.005l584.588 584.727c11.987 11.99 11.985 31.428-.005 43.415-11.99 11.988-31.428 11.985-43.415-.005z"/><path fill="#333" d="M197.768 824.856c-11.987-11.99-11.985-31.427.005-43.414l584.728-584.59c11.99-11.987 31.428-11.985 43.415.006 11.987 11.99 11.985 31.427-.006 43.414l-584.727 584.59c-11.99 11.987-31.428 11.985-43.415-.006z"/></symbol><symbol class="dicon" viewBox="0 0 1024 1024" id="downArrow" xmlns="http://www.w3.org/2000/svg"><path fill="#333" d="M894.974 322.308a24.8 24.8 0 1035.072-35.073 24.8 24.8 0 10-35.072 35.073z"/><path fill="#333" d="M114.9 291.4l-35.3 35.3 422.5 422.5 427.6-427.7-30.6-30.6h-7.8L502.9 679.4z"/><path fill="#333" d="M79.548 326.566a24.8 24.8 0 1035.072-35.074 24.8 24.8 0 10-35.072 35.074z"/></symbol><symbol class="eicon" viewBox="0 0 1024 1024" id="filter" xmlns="http://www.w3.org/2000/svg"><path fill="#333" d="M783.838 238.933c4.096 0 7.44 3.345 7.44 7.441v427.008l84.652-84.548a7.441 7.441 0 0110.513 0l42.12 42.12a7.441 7.441 0 010 10.514C834.8 747.554 786.57 800.598 783.838 800.598H724.24a7.441 7.441 0 01-7.441-7.476V246.374c0-4.096 3.345-7.44 7.441-7.44h59.597zM607.573 716.8c3.755 0 6.827 3.072 6.827 6.827v54.613a6.827 6.827 0 01-6.827 6.827H75.093a6.827 6.827 0 01-6.826-6.827v-54.613c0-3.755 3.072-6.827 6.826-6.827h532.48zm0-204.8c3.755 0 6.827 3.072 6.827 6.827v54.613a6.827 6.827 0 01-6.827 6.827H75.093a6.827 6.827 0 01-6.826-6.827v-54.613c0-3.755 3.072-6.827 6.826-6.827h532.48zm-204.8-204.8c3.755 0 6.827 3.072 6.827 6.827v54.613a6.827 6.827 0 01-6.827 6.827H75.093a6.827 6.827 0 01-6.826-6.827v-54.613c0-3.755 3.072-6.827 6.826-6.827h327.68z"/></symbol><symbol class="ficon" viewBox="0 0 1024 1024" id="gotoTop" xmlns="http://www.w3.org/2000/svg"><path fill="#333" d="M900.8 131.2H123.2c-12.8 0-24-11.2-24-24s11.2-24 24-24h777.6c12.8 0 24 11.2 24 24s-11.2 24-24 24zM494.4 184c9.6-9.6 25.6-9.6 33.6 0l344 344c9.6 9.6 9.6 25.6 0 33.6-9.6 9.6-25.6 9.6-33.6 0L536 259.2v673.6c0 12.8-11.2 24-24 24s-24-11.2-24-24V259.2L185.6 561.6c-9.6 9.6-25.6 9.6-33.6 0-9.6-9.6-9.6-25.6 0-33.6l342.4-344z"/></symbol><symbol class="gicon" viewBox="0 0 1024 1024" id="heart" xmlns="http://www.w3.org/2000/svg"><path fill="#333" d="M486.4 972.8a25.6 25.6 0 01-12.442-3.226c-4.812-2.662-119.09-66.61-235.11-171.366-68.66-61.952-123.443-125.338-162.97-188.416C25.498 529.357 0 449.075 0 371.2a269.107 269.107 0 01268.8-268.8c50.176 0 103.475 18.79 150.067 52.94 27.239 19.969 50.432 44.033 67.533 69.582a282.726 282.726 0 0167.533-69.581C600.525 121.19 653.824 102.4 704 102.4a269.107 269.107 0 01268.8 268.8c0 77.875-25.549 158.157-75.878 238.592-39.476 63.078-94.31 126.464-162.919 188.416-116.019 104.755-230.297 168.704-235.11 171.366a25.6 25.6 0 01-12.442 3.226zM268.8 153.6A217.856 217.856 0 0051.2 371.2c0 155.648 120.32 297.062 221.235 388.352A1420.186 1420.186 0 00486.4 917.606a1420.186 1420.186 0 00213.965-158.054C801.28 668.314 921.6 526.848 921.6 371.2A217.856 217.856 0 00704 153.6c-87.194 0-171.878 71.731-193.331 136.09a25.6 25.6 0 01-48.538 0C440.678 225.33 355.994 153.6 268.8 153.6z"/></symbol><symbol class="hicon" viewBox="0 0 1025 1024" id="iconPhone" xmlns="http://www.w3.org/2000/svg"><path fill="#333" d="M433.326 590.63C331.953 489.321 235.06 371.954 281.521 325.557c66.365-66.429 124.22-107.322 6.595-253.748-117.629-146.422-196.09-33.98-260.472 30.4-74.175 74.238-3.903 350.958 269.621 624.537 273.53 273.458 550.316 343.852 624.55 269.557 64.383-64.32 176.76-142.714 30.404-260.4-146.362-117.693-187.321-59.837-253.754 6.588-46.461 46.27-163.77-50.556-265.139-151.863z"/></symbol><symbol class="iicon" viewBox="0 0 1024 1024" id="leftArrow" xmlns="http://www.w3.org/2000/svg"><path fill="#333" d="M710.4 838.4l-352-345.6c-12.8-12.8-32-12.8-44.8 0-12.8 12.8-12.8 32 0 44.8l352 352c12.8 12.8 32 12.8 44.8 0 12.8-12.8 12.8-38.4 0-51.2z"/><path fill="#333" d="M358.4 531.2l352-352c12.8-12.8 12.8-32 0-44.8-12.8-12.8-32-12.8-44.8 0l-352 352c-12.8 12.8-12.8 32 0 44.8 12.8 12.8 32 12.8 44.8 0z"/></symbol><symbol class="jicon" viewBox="0 0 1024 1024" id="question" xmlns="http://www.w3.org/2000/svg"><path d="M512 0a512 512 0 110 1024A512 512 0 01512 0zm-.585 683.081a58.807 58.807 0 00-43.447 16.896 54.418 54.418 0 00-18.505 43.447c0 17.7 5.632 32.183 18.505 43.447a59.392 59.392 0 0043.447 17.7c17.7 0 32.183-5.632 45.056-16.896a61.294 61.294 0 0017.7-44.251 59.392 59.392 0 00-17.7-43.447 63.927 63.927 0 00-45.056-16.896zm14.482-464.238c-59.538 0-106.203 16.896-140.8 50.688-35.401 33.792-52.297 80.458-52.297 139.996h91.721c0-34.597 6.437-61.148 20.114-79.653 16.092-21.723 41.034-32.183 75.63-32.183 27.356 0 49.079 7.242 64.366 22.528 14.482 15.287 22.528 36.206 22.528 62.757 0 20.114-7.241 39.424-21.724 57.125l-9.654 11.264c-52.298 46.665-83.676 80.457-94.135 102.18-11.264 21.724-16.092 48.274-16.092 78.848v11.264h92.526v-11.264a117.029 117.029 0 0112.069-53.102c7.24-14.482 17.7-28.16 32.182-39.424l38.986-34.67c15.725-14.335 25.892-24.063 30.208-28.89 19.31-25.747 29.769-58.734 29.769-98.963 0-49.079-16.092-87.698-48.275-115.858-32.182-28.965-74.825-42.643-127.122-42.643z" fill="#CCC"/></symbol><symbol class="kicon" viewBox="0 0 1024 1024" id="rightArrow" xmlns="http://www.w3.org/2000/svg"><path fill="#333" d="M711.6 488.624L355.2 152.976a29.36 29.36 0 00-42.352 0 31.408 31.408 0 000 43.552L647.76 512 312.848 827.36a31.408 31.408 0 000 43.552 29.36 29.36 0 0042.352 0l356.4-335.648a36.32 36.32 0 000-46.64z"/></symbol><symbol class="licon" viewBox="0 0 1024 1024" id="search" xmlns="http://www.w3.org/2000/svg"><path fill="#333" d="M908.6 883.1l-155-155c28.1-30.9 50.5-66 66.8-104.4 19.3-45.6 29-94 29-143.9 0-49.9-9.8-98.3-29-143.9-18.6-44-45.3-83.5-79.2-117.5-33.9-33.9-73.5-60.6-117.5-79.2-45.6-19.3-94-29-143.9-29-49.9 0-98.3 9.8-143.9 29-44 18.6-83.5 45.3-117.5 79.2s-60.6 73.5-79.2 117.5c-19.3 45.6-29 94-29 143.9 0 49.9 9.8 98.3 29 143.9 18.6 44 45.3 83.5 79.2 117.5s73.5 60.6 117.5 79.2c45.6 19.3 94 29 143.9 29 49.9 0 98.3-9.8 143.9-29 38.5-16.3 73.6-38.7 104.4-66.8l155 155c3.5 3.5 8.1 5.3 12.7 5.3s9.2-1.8 12.7-5.3c7.1-7.1 7.1-18.5.1-25.5zm-428.8-69.7c-184 0-333.6-149.7-333.6-333.6 0-184 149.7-333.6 333.6-333.6 184 0 333.6 149.7 333.6 333.6 0 184-149.6 333.6-333.6 333.6z"/></symbol><symbol class="micon" viewBox="0 0 1024 1024" id="share" xmlns="http://www.w3.org/2000/svg"><path fill="#333" d="M921.6 391.791c-15.583 0-28.94 13.357-28.94 28.94v451.895H135.792V420.73c0-15.582-13.356-28.939-28.939-28.939s-28.939 13.357-28.939 28.94v480.834c0 15.583 13.357 28.94 28.94 28.94h816.973c15.583 0 28.94-13.357 28.94-28.94V420.73c-2.227-15.582-15.583-28.939-31.166-28.939z"/><path fill="#333" d="M338.365 318.33c6.678 0 15.583-2.226 20.035-8.904l126.887-122.435v311.652c0 15.583 13.356 28.94 28.94 28.94 15.582 0 28.938-13.357 28.938-28.94V186.991l126.887 122.435c6.678 4.452 13.357 8.904 20.035 8.904 6.678 0 15.583-2.226 20.035-8.904a28.216 28.216 0 000-40.07L534.26 97.949c-4.452-4.452-11.13-6.678-17.809-6.678h-2.226H512c-6.678 0-13.357 2.226-17.809 6.678L318.331 267.13a28.216 28.216 0 000 40.07c4.452 8.904 13.356 11.13 20.034 11.13z"/></symbol><symbol class="nicon" viewBox="0 0 1024 1024" id="sort" xmlns="http://www.w3.org/2000/svg"><path fill="#333" d="M381.17 13.21A27.74 27.74 0 00350 24.39L127.78 357.71A27.78 27.78 0 10174 388.53l171.33-257v852.69a27.78 27.78 0 1055.55 0V39.79a27.78 27.78 0 00-19.71-26.58zm507.34 614.57a27.77 27.77 0 00-38.52 7.7l-171.33 257V39.79a27.78 27.78 0 00-55.55 0v944.43a27.78 27.78 0 0019.72 26.58 27.48 27.48 0 008.06 1.19A27.77 27.77 0 00674 999.63L896.22 666.3a27.76 27.76 0 00-7.71-38.52z"/></symbol><symbol class="oicon" viewBox="0 0 1024 1024" id="upArrow" xmlns="http://www.w3.org/2000/svg"><path fill="#333" d="M894.971 741.905a24.8 24.8 0 1035.072-35.073 24.8 24.8 0 10-35.072 35.073z"/><path fill="#333" d="M502.9 349.8l388.4 388.5h7.8l30.6-30.6L502.1 280 79.6 702.5l35.3 35.3z"/><path fill="#333" d="M79.572 737.652a24.8 24.8 0 1035.072-35.073 24.8 24.8 0 10-35.072 35.073z"/></symbol><symbol class="picon" viewBox="0 0 1024 1024" id="userCenter" xmlns="http://www.w3.org/2000/svg"><path fill="#333" d="M403.066 643.71h-8.7a255.915 255.915 0 01-169.417-84.964 32.63 32.63 0 1150.16-41.714 193.472 193.472 0 00124.119 62.443c45.808 2.304 91.617-19.96 136.146-64.234a31.861 31.861 0 0145.041 45.04 249.005 249.005 0 01-177.349 83.43zm403.067 347.533A31.99 31.99 0 01774.91 1024a32.245 32.245 0 01-31.99-30.966 275.62 275.62 0 00-207.547-245.422l-4.35-1.792a380.29 380.29 0 01-255.915 0l-3.327 1.792A275.876 275.876 0 0064.235 993.034 32.245 32.245 0 0131.989 1024a31.99 31.99 0 01-30.965-32.757 344.974 344.974 0 01197.31-283.298 383.873 383.873 0 11411.512 0 344.462 344.462 0 01196.287 283.298zM403.066 704.106A319.894 319.894 0 1083.172 384.212a320.406 320.406 0 00319.894 319.894z"/></symbol></svg>