<?xml version="1.0" encoding="UTF-8"?>
<svg width="14px" height="14px" viewBox="0 0 14 14" version="1.1" xmlns="http://www.w3.org/2000/svg" xmlns:xlink="http://www.w3.org/1999/xlink">
    <!-- Generator: Sketch 59.1 (86144) - https://sketch.com -->
    <title>关闭</title>
    <desc>Created with Sketch.</desc>
    <g id="-控件" stroke="none" stroke-width="1" fill="none" fill-rule="evenodd">
        <g id="591icon-svg格式" transform="translate(-204.000000, -25.000000)" fill="#666666" fill-rule="nonzero">
            <path d="M216.805025,25.2050253 C217.078392,24.9316582 217.521608,24.9316582 217.794975,25.2050253 C218.068342,25.4783923 218.068342,25.9216077 217.794975,26.1949747 L217.794975,26.1949747 L211.989949,32 L217.794975,37.8050253 C218.068342,38.0783923 218.068342,38.5216077 217.794975,38.7949747 C217.521608,39.0683418 217.078392,39.0683418 216.805025,38.7949747 L216.805025,38.7949747 L211,32.989 L205.194975,38.7949747 C204.948944,39.0410051 204.565337,39.0656081 204.291791,38.8687838 L204.205025,38.7949747 C203.931658,38.5216077 203.931658,38.0783923 204.205025,37.8050253 L204.205025,37.8050253 L210.010051,32 L204.205025,26.1949747 C203.931658,25.9216077 203.931658,25.4783923 204.205025,25.2050253 C204.478392,24.9316582 204.921608,24.9316582 205.194975,25.2050253 L205.194975,25.2050253 L211,31.011 Z" id="形状结合"></path>
        </g>
    </g>
</svg>