<?xml version="1.0" encoding="UTF-8"?>
<svg width="23px" height="22px" viewBox="0 0 23 22" version="1.1" xmlns="http://www.w3.org/2000/svg" xmlns:xlink="http://www.w3.org/1999/xlink">
    <!-- Generator: Sketch 59.1 (86144) - https://sketch.com -->
    <title>top</title>
    <desc>Created with Sketch.</desc>
    <g id="-控件" stroke="none" stroke-width="1" fill="none" fill-rule="evenodd">
        <g id="591icon-svg格式" transform="translate(-20.000000, -88.000000)" fill="#666666" fill-rule="nonzero">
            <path d="M31.9664528,92.1637631 L32.0606602,92.2469517 L41.2530483,101.43934 C41.6435726,101.829864 41.6435726,102.463029 41.2530483,102.853553 C40.8925644,103.214037 40.3253333,103.241767 39.9330421,102.936742 L39.8388348,102.853553 L32.4990585,95.5140585 L32.5,109 C32.5,109.512836 32.1139598,109.935507 31.6166211,109.993272 L31.5,110 C30.9871642,110 30.5644928,109.61396 30.5067277,109.116621 L30.5,109 L30.4990585,95.2220585 L22.1611652,103.56066 C21.8006813,103.921144 21.2334502,103.948874 20.841159,103.643849 L20.7469517,103.56066 C20.3864677,103.200176 20.3587382,102.632945 20.6637631,102.240654 L20.7469517,102.146447 L30.6464466,92.2469517 C31.0069306,91.8864677 31.5741616,91.8587382 31.9664528,92.1637631 Z M42,88 C42.5522847,88 43,88.4477153 43,89 C43,89.5522847 42.5522847,90 42,90 L21,90 C20.4477153,90 20,89.5522847 20,89 C20,88.4477153 20.4477153,88 21,88 L42,88 Z" id="形状结合"></path>
        </g>
    </g>
</svg>