<?xml version="1.0" encoding="UTF-8"?>
<svg width="14px" height="15px" viewBox="0 0 14 15" version="1.1" xmlns="http://www.w3.org/2000/svg" xmlns:xlink="http://www.w3.org/1999/xlink">
    <!-- Generator: Sketch 59.1 (86144) - https://sketch.com -->
    <title>菜單</title>
    <desc>Created with Sketch.</desc>
    <g id="-控件" stroke="none" stroke-width="1" fill="none" fill-rule="evenodd">
        <g id="591icon-svg格式" transform="translate(-336.000000, -25.000000)" fill="#666666" fill-rule="nonzero">
            <g id="Group-14" transform="translate(337.000000, 26.000000)">
                <g>
                    <path d="M0,1.5 L12,1.5 C12.5522847,1.5 13,1.05228475 13,0.5 C13,-0.0522847498 12.5522847,-0.5 12,-0.5 L0,-0.5 C-0.55228475,-0.5 -1,-0.0522847498 -1,0.5 C-1,1.05228475 -0.55228475,1.5 0,1.5 Z" id="Line-2"></path>
                    <path d="M0,7.5 L12,7.5 C12.5522847,7.5 13,7.05228475 13,6.5 C13,5.94771525 12.5522847,5.5 12,5.5 L0,5.5 C-0.55228475,5.5 -1,5.94771525 -1,6.5 C-1,7.05228475 -0.55228475,7.5 0,7.5 Z" id="Line-2-Copy"></path>
                    <path d="M0,13.5 L12,13.5 C12.5522847,13.5 13,13.0522847 13,12.5 C13,11.9477153 12.5522847,11.5 12,11.5 L0,11.5 C-0.55228475,11.5 -1,11.9477153 -1,12.5 C-1,13.0522847 -0.55228475,13.5 0,13.5 Z" id="Line-2-Copy-2"></path>
                </g>
            </g>
        </g>
    </g>
</svg>