<svg t="1616669898857" class="icon" viewBox="0 0 1024 1024" version="1.1" xmlns="http://www.w3.org/2000/svg" p-id="1437" width="200" height="200"><path d="M512 0a512 512 0 1 1 0 1024A512 512 0 0 1 512 0z m-0.585143 683.081143a58.806857 58.806857 0 0 0-43.446857 16.896 54.418286 54.418286 0 0 0-18.505143 43.446857c0 17.700571 5.632 32.182857 18.505143 43.446857a59.392 59.392 0 0 0 43.446857 17.700572c17.700571 0 32.182857-5.632 45.056-16.896a61.293714 61.293714 0 0 0 17.700572-44.251429 59.392 59.392 0 0 0-17.700572-43.446857 63.926857 63.926857 0 0 0-45.056-16.896z m14.482286-464.237714c-59.538286 0-106.203429 16.896-140.8 50.688-35.401143 33.792-52.297143 80.457143-52.297143 139.995428h91.721143c0-34.596571 6.436571-61.147429 20.114286-79.652571 16.091429-21.723429 41.033143-32.182857 75.629714-32.182857 27.355429 0 49.078857 7.241143 64.365714 22.528 14.482286 15.286857 22.528 36.205714 22.528 62.756571 0 20.114286-7.241143 39.424-21.723428 57.124571l-9.654858 11.264c-52.297143 46.665143-83.675429 80.457143-94.134857 102.180572-11.264 21.723429-16.091429 48.274286-16.091428 78.848V643.657143H558.08v-11.264a117.028571 117.028571 0 0 1 12.068571-53.101714c7.241143-14.482286 17.700571-28.16 32.182858-39.424l38.985142-34.669715c15.725714-14.336 25.892571-24.064 30.208-28.891428 19.309714-25.746286 29.769143-58.733714 29.769143-98.962286 0-49.078857-16.091429-87.698286-48.274285-115.858286-32.182857-28.964571-74.825143-42.642286-127.122286-42.642285z" fill="#CCCCCC" p-id="1438"></path></svg>