<?xml version="1.0" encoding="UTF-8"?>
<svg width="14px" height="14px" viewBox="0 0 14 14" version="1.1" xmlns="http://www.w3.org/2000/svg" xmlns:xlink="http://www.w3.org/1999/xlink">
    <!-- Generator: Sketch 59.1 (86144) - https://sketch.com -->
    <title>搜寻</title>
    <desc>Created with Sketch.</desc>
    <g id="-控件" stroke="none" stroke-width="1" fill="none" fill-rule="evenodd">
        <g id="591icon-svg格式" transform="translate(-24.000000, -25.000000)" fill="#999999" fill-rule="nonzero">
            <g id="icons/搜寻" transform="translate(24.000000, 25.000000)">
                <g id="Oval">
                    <path d="M6.5,0 C10.0898509,0 13,2.91014913 13,6.5 C13,8.09042241 12.428801,9.54743415 11.4803578,10.6770806 L11.5303301,10.7196699 L13.5303301,12.7196699 C13.8232233,13.0125631 13.8232233,13.4874369 13.5303301,13.7803301 C13.2374369,14.0732233 12.7625631,14.0732233 12.4696699,13.7803301 L12.4696699,13.7803301 L10.4696699,11.7803301 C10.4439942,11.7546544 10.4205693,11.7275802 10.3993952,11.6993528 C9.31419721,12.5162727 7.96358889,13 6.5,13 C2.91014913,13 0,10.0898509 0,6.5 C0,2.91014913 2.91014913,0 6.5,0 Z M6.5,1.5 C3.73857625,1.5 1.5,3.73857625 1.5,6.5 C1.5,9.26142375 3.73857625,11.5 6.5,11.5 C9.26142375,11.5 11.5,9.26142375 11.5,6.5 C11.5,3.73857625 9.26142375,1.5 6.5,1.5 Z"></path>
                </g>
            </g>
        </g>
    </g>
</svg>