<?xml version="1.0" encoding="UTF-8"?>
<svg width="20px" height="18px" viewBox="0 0 20 18" version="1.1" xmlns="http://www.w3.org/2000/svg" xmlns:xlink="http://www.w3.org/1999/xlink">
    <!-- Generator: Sketch 59.1 (86144) - https://sketch.com -->
    <title>分享</title>
    <desc>Created with Sketch.</desc>
    <g id="-控件" stroke="none" stroke-width="1" fill="none" fill-rule="evenodd">
        <g id="591icon-svg格式" transform="translate(-286.000000, -25.000000)" fill="#666666" fill-rule="nonzero">
            <g id="编组-3" transform="translate(286.000000, 25.000000)">
                <path d="M19,6 C19.5522847,6 20,6.44771525 20,7 L20,7 L20,18 L0,18 L0,7 C0,6.44771525 0.44771525,6 1,6 C1.55228475,6 2,6.44771525 2,7 L2,7 L2,16 L18,16 L18,7 C18,6.44771525 18.4477153,6 19,6 Z M9.29289322,0.292893219 C9.68341751,-0.0976310729 10.3165825,-0.0976310729 10.7071068,0.292893219 L10.7071068,0.292893219 L14.7071068,4.29289322 C15.0976311,4.68341751 15.0976311,5.31658249 14.7071068,5.70710678 C14.3165825,6.09763107 13.6834175,6.09763107 13.2928932,5.70710678 L13.2928932,5.70710678 L11,3.414 L11,10 C11,10.5128358 10.6139598,10.9355072 10.1166211,10.9932723 L10,11 C9.44771525,11 9,10.5522847 9,10 L9,10 L9,3.414 L6.70710678,5.70710678 C6.34662282,6.06759074 5.77939176,6.09532028 5.38710056,5.79029539 L5.29289322,5.70710678 C4.90236893,5.31658249 4.90236893,4.68341751 5.29289322,4.29289322 L5.29289322,4.29289322 Z" id="形状结合"></path>
            </g>
        </g>
    </g>
</svg>