<?xml version="1.0" standalone="no"?><!DOCTYPE svg PUBLIC "-//W3C//DTD SVG 1.1//EN" "http://www.w3.org/Graphics/SVG/1.1/DTD/svg11.dtd"><svg class="icon" width="200px" height="192.48px" viewBox="0 0 1064 1024" version="1.1" xmlns="http://www.w3.org/2000/svg"><path fill="#333333" d="M806.298 204.8c56.115 0 101.458 45.466 104.857 102.236l0.205 6.84v416.728c0 57.59-43.13 105.267-98.386 108.871l-6.676 0.205H258.662c-56.115 0-101.458-45.466-104.857-102.236l-0.205-6.84V313.876c0-57.59 43.13-105.267 98.386-108.871l6.676-0.205h547.636z m0 61.44H258.662c-22.118 0-40.96 18.268-43.376 42.394l-0.246 5.242v416.728c0 24.862 17.326 44.81 38.912 47.35l4.71 0.286h547.636c22.118 0 40.96-18.268 43.376-42.394l0.246-5.242V313.876c0-24.862-17.326-44.81-38.912-47.35l-4.71-0.286zM658.063 509.542c27.485-24.535 66.56-23.756 94.823 2.622l4.915 4.915 138.445 183.255a30.72 30.72 0 0 1-45.998 40.469l-2.99-3.441-136.52-180.92c-3.318-3.605-6.554-4.383-9.83-2.458l-1.926 1.434-205.414 183.541a30.72 30.72 0 0 1-35.84 3.687l-4.096-2.826-101.376-83.026c-1.393-1.147-2.376-1.434-3.359-1.024l-0.983 0.614-131.481 114.32a30.72 30.72 0 0 1-43.459-43.132l3.195-3.235 131.973-114.811a64.143 64.143 0 0 1 77.947-4.055l5.079 3.768 81.019 66.396 185.876-166.052zM409.6 368.64a92.16 92.16 0 1 1 0 184.32 92.16 92.16 0 0 1 0-184.32z m0 61.44a30.72 30.72 0 1 0 0 61.44 30.72 30.72 0 0 0 0-61.44z" /></svg>