<?xml version="1.0" encoding="UTF-8"?>
<svg width="25px" height="27px" viewBox="0 0 25 27" version="1.1" xmlns="http://www.w3.org/2000/svg" xmlns:xlink="http://www.w3.org/1999/xlink">
    <!-- Generator: Sketch 59.1 (86144) - https://sketch.com -->
    <title>我的</title>
    <desc>Created with Sketch.</desc>
    <g id="-控件" stroke="none" stroke-width="1" fill="none" fill-rule="evenodd">
        <g id="591icon-svg格式" transform="translate(-68.000000, -25.000000)" fill="#666666" fill-rule="nonzero">
            <path d="M85.2405928,44.9998083 C86.8733199,44.9998083 88.4643678,45.5153019 89.7868798,46.4727883 C91.0934091,47.4187035 92.1178406,48.7023995 92.7503301,50.1862326 L92.7503301,50.1862326 L92.919658,50.5834791 C93.136216,51.0915285 92.89992,51.6789408 92.3918762,51.8955012 C91.8838325,52.1120616 91.2964267,51.8757631 91.0798687,51.3677137 L91.0798687,51.3677137 L90.9105408,50.9704671 C90.4204004,49.8205878 89.6265291,48.8258025 88.6140492,48.0927764 C87.6327129,47.382298 86.4521164,46.9997891 85.2405928,46.9997891 L85.2405928,46.9997891 L75.6943827,46.9997891 C74.5076364,46.9997891 73.3505746,47.3707689 72.3850717,48.0608279 C71.3940795,48.7691046 70.6186263,49.7380267 70.1447096,50.8601413 L70.1447096,50.8601413 L69.9214275,51.3888168 C69.7065546,51.8975812 69.1199353,52.1358255 68.6111765,51.9209502 C68.1024177,51.706075 67.864176,51.1194492 68.0790489,50.6106848 L68.0790489,50.6106848 L68.302331,50.0820093 C68.9199805,48.6195719 69.9306185,47.3567883 71.2221658,46.4337006 C72.5269505,45.5011519 74.0906087,44.9998083 75.6943827,44.9998083 L75.6943827,44.9998083 Z M80.9997316,25 C85.4179184,25 88.9995664,28.5816877 88.9995664,32.9999233 L88.9995664,35.9998946 C88.9995664,40.4181302 85.4179184,43.9998179 80.9997316,43.9998179 C76.5815448,43.9998179 72.9998968,40.4181302 72.9998968,35.9998946 L72.9998968,32.9999233 C72.9998968,28.5816877 76.5815448,25 80.9997316,25 Z M80.9997316,26.9999808 C77.6860915,26.9999808 74.9998555,29.6862466 74.9998555,32.9999233 L74.9998555,35.9998946 C74.9998555,39.3135713 77.6860915,41.999837 80.9997316,41.999837 C84.3133717,41.999837 86.9996077,39.3135713 86.9996077,35.9998946 L86.9996077,32.9999233 C86.9996077,29.6862466 84.3133717,26.9999808 80.9997316,26.9999808 Z M77.4642551,36.2928084 C77.8547756,35.9022879 78.487931,35.9022844 78.8784472,36.2928006 L78.8784472,36.2928006 L79.0066894,36.4138407 C80.1847436,37.4628542 81.9913036,37.4224973 83.121017,36.2927839 L83.121017,36.2927839 L83.2082437,36.2150715 C83.6007572,35.9042485 84.1725938,35.9301471 84.535216,36.2927693 C84.9257322,36.6832856 84.9257287,37.316441 84.5352014,37.7069683 C82.5826054,39.6595642 79.4168284,39.6595818 77.4642472,37.7070006 C77.073731,37.3164844 77.0737345,36.683329 77.4642551,36.2928084 Z" id="形状结合"></path>
        </g>
    </g>
</svg>