<?xml version="1.0" standalone="no"?><!DOCTYPE svg PUBLIC "-//W3C//DTD SVG 1.1//EN" "http://www.w3.org/Graphics/SVG/1.1/DTD/svg11.dtd"><svg class="icon" width="200px" height="200.00px" viewBox="0 0 1024 1024" version="1.1" xmlns="http://www.w3.org/2000/svg"><path fill="#333333" d="M521.984 938.837H233.131c-46.166 0-83.798-38.954-83.798-86.784V214.827c0-47.872 37.59-86.827 83.84-86.827H716.8c46.208 0 83.84 38.955 83.84 86.827v170.41a30.037 30.037 0 1 1-60.075 0v-170.41c0-14.507-10.88-26.752-23.765-26.752H233.173c-12.885 0-23.765 12.245-23.765 26.752v637.226c0 14.507 10.88 26.71 23.765 26.71h288.811a30.037 30.037 0 0 1 0 60.074zM342.443 503.381h228.096q30.037 0 30.037 30.038 0 30.037-30.037 30.037H342.443q-30.038 0-30.038-30.037 0-30.038 30.038-30.038zM342.443 331.69h268.373q30.037 0 30.037 30.038 0 30.037-30.037 30.037H342.443q-30.038 0-30.038-30.037t30.038-30.037zM342.443 675.072h183.936q30.037 0 30.037 30.037 0 30.038-30.037 30.038H342.443q-30.038 0-30.038-30.038 0-30.037 30.038-30.037zM755.712 578.901l113.45 50.518-24.447 54.869-113.451-50.517zM824.661 467.755a101.547 101.547 0 0 1 95.403 135.509l-2.901 7.339-122.155 273.834-132.523 49.579-52.736-132.437 122.07-273.75a101.632 101.632 0 0 1 92.842-60.074z m-0.17 64a37.547 37.547 0 0 0-32 17.92l-2.262 4.266-111.061 249.046 19.584 49.109 48.725-18.219L858.71 584.533a37.547 37.547 0 0 0-34.218-52.778z" /></svg>